<?xml version="1.0" encoding="UTF-8" standalone="no"?>
<!-- Created with Inkscape (http://www.inkscape.org/) -->

<svg
   xmlns:dc="http://purl.org/dc/elements/1.1/"
   xmlns:cc="http://creativecommons.org/ns#"
   xmlns:rdf="http://www.w3.org/1999/02/22-rdf-syntax-ns#"
   xmlns:svg="http://www.w3.org/2000/svg"
   xmlns="http://www.w3.org/2000/svg"
   xmlns:sodipodi="http://sodipodi.sourceforge.net/DTD/sodipodi-0.dtd"
   xmlns:inkscape="http://www.inkscape.org/namespaces/inkscape"
   id="svg3004"
   version="1.1"
   inkscape:version="0.48.4 r9939"
   width="770"
   height="190"
   xml:space="preserve"
   sodipodi:docname="eXtraWidgets.svg"><metadata
     id="metadata3010"><rdf:RDF><cc:Work
         rdf:about=""><dc:format>image/svg+xml</dc:format><dc:type
           rdf:resource="http://purl.org/dc/dcmitype/StillImage" /><dc:title /></cc:Work></rdf:RDF></metadata><defs
     id="defs3008" /><sodipodi:namedview
     pagecolor="#ffffff"
     bordercolor="#666666"
     borderopacity="1"
     objecttolerance="10"
     gridtolerance="10"
     guidetolerance="10"
     inkscape:pageopacity="0"
     inkscape:pageshadow="2"
     inkscape:window-width="1855"
     inkscape:window-height="1176"
     id="namedview3006"
     showgrid="false"
     inkscape:zoom="1.0764331"
     inkscape:cx="430.82581"
     inkscape:cy="6.6705672"
     inkscape:window-x="65"
     inkscape:window-y="24"
     inkscape:window-maximized="1"
     inkscape:current-layer="g3014"
     fit-margin-top="10"
     fit-margin-left="10"
     fit-margin-right="10"
     fit-margin-bottom="0" /><g
     id="g3012"
     inkscape:groupmode="layer"
     inkscape:label="ink_ext_XXXXXX"
     transform="matrix(1.25,0,0,-1.25,-16.867744,239.95026)"><g
       id="g3014"
       transform="scale(0.1,0.1)"><g
         id="g3016"
         transform="scale(10,10)" /><path
         d="m 4329.26,508.289 c -319.6,0 -639.22,27.551 -954.54,84.672 -560.85,101.598 -1122.73,212.809 -1695.26,212.809 -13.81,0 -27.73,-0.071 -41.56,-0.2 -147.83,-1.41 -295.28,-11.679 -442.1,-28.941 -74.99,-8.809 -136.66,-17.18 -193.92,-26.367 -61.255,-9.832 -122.4,-20.383 -183.333,-32.032 l -1.301,-0.25 c -5.715,-1.128 -11.422,-2.261 -17.125,-3.41 -13.426,-2.718 -26.855,-5.449 -40.262,-8.25 -25.3,-5.289 -50.578,-10.648 -75.808,-16.238 -5.34,-1.184 -10.668,-2.391 -16.004,-3.57 -1.078,-0.25 -2.113,-0.5 -3.055,-0.723 -20.129,-4.707 -40.242,-9.48 -60.32,-14.379 -12.953,-3.172 -25.883,-6.43 -38.817,-9.66 l -2.14,-0.57 c -17.211,-4.52 -34.387,-9.141 -51.594,-13.66 -13.867,-3.641 -180.066,-50.891 -238.137,-50.891 -11.347,0 -18.57,1.801 -19.718,6.09 -7,26.121 229.164,85.773 245.703,90.121 375.426,98.73 755.631,182.398 1141.911,225.16 167.83,18.582 335.67,26.832 503.49,26.832 341.73,0 683.1,-34.242 1022.16,-85.172 270.48,-40.64 537.09,-101.238 807,-144.711 246.55,-39.699 494.61,-59.07 744.26,-62.73 44.77,-0.66 89.54,-1.09 134.3,-1.09 109,0 217.97,2.562 326.73,10.691 75.91,5.66 151.73,12.739 227.3,21.93 32.82,3.988 65.63,8.148 98.38,12.781 7.1,1.008 11.68,1.641 14.52,2.028 2.2,0.339 4.79,0.75 7.91,1.222 15.28,2.36 30.57,4.719 45.84,7.219 34.01,5.551 68,11.309 101.89,17.551 10.8,1.988 21.61,4.008 32.41,6.058 4,0.782 7.72,1.52 9.99,1.993 24.81,5.058 49.6,10.199 74.32,15.636 2.97,0.653 6.83,1.524 10.75,2.403 2.36,0.558 4.71,1.089 7.06,1.64 10.72,2.551 33.63,8.309 48.08,11.91 2.42,0.649 4.84,1.27 7.26,1.918 6.85,2.012 13.71,4 20.54,6.071 64,19.359 129.21,35.82 194.62,49.699 34.29,7.281 73.56,17.723 109.83,17.723 3.2,0 6.37,-0.09 9.51,-0.262 32.57,-1.77 -20.75,-24.371 -20.95,-24.371 0,0 0.07,0.031 0.23,0.101 -47.6,-20.922 -98.01,-35.699 -147.67,-50.718 C 5480.35,597.59 4904.77,508.289 4329.26,508.289"
         style="fill:#7875c2;fill-opacity:1;fill-rule:nonzero;stroke:none"
         id="path3028"
         inkscape:connector-curvature="0" /><path
         d="m 1866.12,399.602 c 6.24,0 20.57,9.48 7.76,9.48 -6.24,0 -20.57,-9.48 -7.76,-9.48"
         style="fill:#6948a8;fill-opacity:1;fill-rule:nonzero;stroke:none"
         id="path3030"
         inkscape:connector-curvature="0" /><g
         id="g3038"
         transform="scale(10,10)" /><text
         xml:space="preserve"
         style="font-size:320px;font-style:normal;font-weight:normal;line-height:125%;letter-spacing:0px;word-spacing:0px;fill:#7a7b7d;fill-opacity:1;stroke:none;font-family:Sans"
         x="162.91071"
         y="-1045.7815"
         id="text3062"
         sodipodi:linespacing="125%"
         transform="scale(1,-1)"><tspan
           sodipodi:role="line"
           id="tspan3064"
           x="162.91071"
           y="-1045.7815"
           style="font-size:960px;font-style:normal;font-variant:normal;font-weight:normal;font-stretch:normal;fill:#7a7b7d;fill-opacity:1;font-family:Lucida Sans;-inkscape-font-specification:Lucida Sans">e<tspan
   style="fill:#222f62;fill-opacity:1"
   id="tspan4443">X</tspan>tra<tspan
   style="fill:#222f62;fill-opacity:1"
   id="tspan4449">W</tspan>idgets</tspan></text>
</g></g></svg>